<?xml version="1.0" encoding="UTF-8"?>
<svg id="Layer_1" data-name="Layer 1" xmlns="http://www.w3.org/2000/svg" viewBox="0 0 246.4 231.29">
  <defs>
    <style>
      .cls-1 {
        fill: #fff;
      }
    </style>
  </defs>
  <path class="cls-1" d="M223.98,226.33l-91.04-110.13c-5.05-6.11-14.42-6.11-19.47,0L22.42,226.33c-8.75,10.59-25.73,1.57-21.86-11.61L60.87,9.08c2.91-9.94,15.89-12.34,22.17-4.1l30.11,39.5c5.06,6.63,15.04,6.63,20.09,0l30.11-39.5c6.28-8.24,19.26-5.83,22.17,4.1l60.31,205.64c3.87,13.18-13.11,22.19-21.86,11.61Z"/>
  <path class="cls-1" d="M157.19,195.56h0c1.09.13,1.09,1.71,0,1.84-17.33,2.09-30.98,15.75-33.07,33.07h0c-.13,1.09-1.71,1.09-1.84,0h0c-2.09-17.33-15.75-30.98-33.07-33.07-1.09-.13-1.09-1.71,0-1.84,17.33-2.09,30.98-15.75,33.07-33.07.13-1.09,1.71-1.09,1.84,0,2.09,17.33,15.75,30.98,33.07,33.07Z"/>
</svg>